<svg xmlns="http://www.w3.org/2000/svg" xmlns:xlink="http://www.w3.org/1999/xlink" viewBox="0 0 62.24 14.4"><defs><style>.cls-1{fill:#f9e692;stroke-width:0.1px;}.cls-1,.cls-6{stroke:#a97c50;stroke-miterlimit:10;}.cls-2{fill:#f6d169;}.cls-3{fill:url(#linear-gradient);}.cls-4{fill:url(#linear-gradient-2);}.cls-5{fill:url(#linear-gradient-3);}.cls-6{fill:#fbe896;stroke-width:0.05px;}.cls-7{fill:#bd662a;}.cls-8{fill:#b85e28;}.cls-9{opacity:0.5;fill:url(#linear-gradient-4);}.cls-10{opacity:0.65;fill:url(#linear-gradient-5);}.cls-11{opacity:0.67;fill:url(#linear-gradient-6);}.cls-12,.cls-13{fill:#fff;}.cls-13{font-size:13.77px;font-family:NiagaraEngraved-Reg, Niagara Engraved;}</style><linearGradient id="linear-gradient" x1="32.51" y1="8.72" x2="38.16" y2="8.72" gradientUnits="userSpaceOnUse"><stop offset="0" stop-color="#fbe896"/><stop offset="0.04" stop-color="#fae48f"/><stop offset="0.15" stop-color="#f8dc7e"/><stop offset="0.29" stop-color="#f7d672"/><stop offset="0.49" stop-color="#f6d26b"/><stop offset="1" stop-color="#f6d169"/></linearGradient><linearGradient id="linear-gradient-2" x1="38.65" y1="10.81" x2="44.54" y2="10.81" gradientUnits="userSpaceOnUse"><stop offset="0.45" stop-color="#f6d169"/><stop offset="1" stop-color="#fbe896"/></linearGradient><linearGradient id="linear-gradient-3" x1="41.85" y1="10.03" x2="42.72" y2="10.03" gradientUnits="userSpaceOnUse"><stop offset="0" stop-color="#f6d169"/><stop offset="1" stop-color="#fbe896"/></linearGradient><linearGradient id="linear-gradient-4" x1="38.65" y1="11.86" x2="38.65" y2="9.53" gradientUnits="userSpaceOnUse"><stop offset="0" stop-color="#b6974c"/><stop offset="0.11" stop-color="#c4a75b"/><stop offset="0.33" stop-color="#dcc475"/><stop offset="0.56" stop-color="#edd887"/><stop offset="0.78" stop-color="#f8e492"/><stop offset="1" stop-color="#fbe896"/></linearGradient><linearGradient id="linear-gradient-5" x1="35.29" y1="7.29" x2="38.01" y2="7.29" gradientUnits="userSpaceOnUse"><stop offset="0" stop-color="#b6974c"/><stop offset="0.02" stop-color="#ba9c51"/><stop offset="0.17" stop-color="#d2b86a"/><stop offset="0.33" stop-color="#e4cd7d"/><stop offset="0.5" stop-color="#f1dc8b"/><stop offset="0.7" stop-color="#f9e593"/><stop offset="1" stop-color="#fbe896"/></linearGradient><linearGradient id="linear-gradient-6" x1="39.13" y1="6.65" x2="42.17" y2="6.65" gradientUnits="userSpaceOnUse"><stop offset="0" stop-color="#fbe896"/><stop offset="1" stop-color="#f6ca66"/></linearGradient></defs><g id="Layer_2" data-name="Layer 2"><g id="Layer_1-2" data-name="Layer 1"><path class="cls-1" d="M42.13,8.38A6.43,6.43,0,0,0,39.58.89s-4.94,1.65-4.34,6.7c0,0-1.44-.66-2-3.64-.19-.17-.36.07-.38.14s-.06.45-.14.65a5.54,5.54,0,0,0-.23.89,4.49,4.49,0,0,0-.07,1.1A4,4,0,0,0,32.64,8a4.61,4.61,0,0,0,.73,1.27,6.39,6.39,0,0,0,1.36,1.23,11.7,11.7,0,0,0,2.14,1.1l.7.25a1,1,0,0,0,.42.09,3.12,3.12,0,0,0,.44-.09.89.89,0,0,1,.45.12,1.73,1.73,0,0,0,.55.15h-.08a2.39,2.39,0,0,0,.6,0c.2,0,.39-.06.59-.1l.86-.17,1.2-.28.06,0s2.75-1.27,3.56-3.07l.62-1c.14-.17.16-.32-.25-.24A34.38,34.38,0,0,0,42.13,8.38Z"/><path class="cls-2" d="M40.75,2.64l.91,6.45S43.5,5.11,40.75,2.64Z"/><path class="cls-3" d="M32.51,6.28s.07,3.9,5.05,5.25l.6,0-.45-2.07A19.21,19.21,0,0,1,34.05,7.6a2,2,0,0,1-.53-1.73A3.22,3.22,0,0,0,33.81,8C34.37,9,32.45,7.05,32.51,6.28Z"/><path class="cls-2" d="M39.56,1.17S31.3,4.71,38.08,11.42L39,4.88Z"/><path class="cls-4" d="M44.39,9.77c-.24.08-.49.08-.72.16a.32.32,0,0,1-.14,0,5.07,5.07,0,0,1-1.25.35l-.28.05a.49.49,0,0,1-.31.07,3.58,3.58,0,0,1-2.17.05l-.14-.08-.73,1.4.56.14a6.23,6.23,0,0,0,5.33-2.23A.55.55,0,0,1,44.39,9.77Z"/><path class="cls-5" d="M42.65,9.31c-.16.06-.32.06-.48.11h-.09a3.21,3.21,0,0,1-.84.24l-.18,0a.33.33,0,0,1-.21,0,2.22,2.22,0,0,1-1.44,0,.18.18,0,0,1-.09-.06l-.49,1,.37.09a4.08,4.08,0,0,0,3.55-1.54Z"/><path class="cls-6" d="M42.12,8a6.41,6.41,0,0,1-1,2.31A3.74,3.74,0,0,1,39,11.84c-1.32.23-1,0-1,0s-1.08-.22-2-2.2l0,0a11,11,0,0,1-.68-2A2.81,2.81,0,0,1,37.65,5a1.74,1.74,0,0,1,.36.19.94.94,0,0,1,.49,1.15l.56.11.25-.53-.18-.6a4.61,4.61,0,0,1,.76,0s0,0,0,0A2.26,2.26,0,0,1,42.1,6.74,3.35,3.35,0,0,1,42.12,8Z"/><path class="cls-7" d="M39.31,5.87s2.06,3,1.95,3.39a5.81,5.81,0,0,0-2.18-2.85Z"/><path class="cls-8" d="M38.44,6.21s-2.77,1.37-2.13,4c0,0-1.1-1.81,2.36-3.9Z"/><path class="cls-6" d="M41.2,10.21A2.52,2.52,0,0,1,40,11.42a2.74,2.74,0,0,1-2,.42c-1.21-.6-1.76-1.25-1.9-1.89-.42-1.9,2.71-3.7,2.71-3.7C41.35,7.72,41.67,9.18,41.2,10.21Z"/><path class="cls-9" d="M41.19,10.16a2.52,2.52,0,0,1-1.14,1.24,2.74,2.74,0,0,1-2,.42c-1.21-.6-1.76-1.25-1.9-1.89a2.37,2.37,0,0,1,0-.4S37.71,13,41.19,10.16Z"/><path class="cls-10" d="M36,9.64l0,0a11,11,0,0,1-.68-2A2.81,2.81,0,0,1,37.65,5a1.74,1.74,0,0,1,.36.19A3.13,3.13,0,0,0,36,9.64Z"/><path class="cls-11" d="M42.12,8c-.19-1.37-3-2.77-3-2.77.27,0,.53,0,.76,0,0,0,0,0,0,0A2.26,2.26,0,0,1,42.1,6.74,3.35,3.35,0,0,1,42.12,8Z"/><ellipse class="cls-12" cx="37.65" cy="5.99" rx="0.47" ry="0.21" transform="translate(6.79 28.37) rotate(-45)"/><ellipse class="cls-12" cx="40.28" cy="10.21" rx="0.52" ry="0.37" transform="translate(4.58 31.47) rotate(-45)"/><ellipse class="cls-12" cx="41.38" cy="6.21" rx="0.22" ry="0.37" transform="translate(4.78 26.48) rotate(-37.51)"/><text class="cls-13" transform="translate(0 11.71) scale(1.83 1)"><tspan xml:space="preserve">Smak    Jit</tspan></text></g></g></svg>