<svg xmlns="http://www.w3.org/2000/svg" xmlns:xlink="http://www.w3.org/1999/xlink" viewBox="0 0 52 18.08"><defs><style>.cls-1{fill:#f9e692;stroke-width:0.1px;}.cls-1,.cls-6{stroke:#a97c50;stroke-miterlimit:10;}.cls-2{fill:#f6d169;}.cls-3{fill:url(#linear-gradient);}.cls-4{fill:url(#linear-gradient-2);}.cls-5{fill:url(#linear-gradient-3);}.cls-6{fill:#fbe896;stroke-width:0.05px;}.cls-7{fill:#bd662a;}.cls-8{fill:#b85e28;}.cls-9{opacity:0.5;fill:url(#linear-gradient-4);}.cls-10{opacity:0.65;fill:url(#linear-gradient-5);}.cls-11{opacity:0.67;fill:url(#linear-gradient-6);}.cls-12,.cls-13{fill:#fff;}.cls-13{font-size:17.28px;font-family:NiagaraEngraved-Reg, Niagara Engraved;}</style><linearGradient id="linear-gradient" x1="26.27" y1="11.03" x2="31.92" y2="11.03" gradientUnits="userSpaceOnUse"><stop offset="0" stop-color="#fbe896"/><stop offset="0.04" stop-color="#fae48f"/><stop offset="0.15" stop-color="#f8dc7e"/><stop offset="0.29" stop-color="#f7d672"/><stop offset="0.49" stop-color="#f6d26b"/><stop offset="1" stop-color="#f6d169"/></linearGradient><linearGradient id="linear-gradient-2" x1="32.41" y1="13.12" x2="38.3" y2="13.12" gradientUnits="userSpaceOnUse"><stop offset="0.45" stop-color="#f6d169"/><stop offset="1" stop-color="#fbe896"/></linearGradient><linearGradient id="linear-gradient-3" x1="35.61" y1="12.35" x2="36.48" y2="12.35" gradientUnits="userSpaceOnUse"><stop offset="0" stop-color="#f6d169"/><stop offset="1" stop-color="#fbe896"/></linearGradient><linearGradient id="linear-gradient-4" x1="32.41" y1="14.18" x2="32.41" y2="11.84" gradientUnits="userSpaceOnUse"><stop offset="0" stop-color="#b6974c"/><stop offset="0.11" stop-color="#c4a75b"/><stop offset="0.33" stop-color="#dcc475"/><stop offset="0.56" stop-color="#edd887"/><stop offset="0.78" stop-color="#f8e492"/><stop offset="1" stop-color="#fbe896"/></linearGradient><linearGradient id="linear-gradient-5" x1="29.05" y1="9.61" x2="31.77" y2="9.61" gradientUnits="userSpaceOnUse"><stop offset="0" stop-color="#b6974c"/><stop offset="0.02" stop-color="#ba9c51"/><stop offset="0.17" stop-color="#d2b86a"/><stop offset="0.33" stop-color="#e4cd7d"/><stop offset="0.5" stop-color="#f1dc8b"/><stop offset="0.7" stop-color="#f9e593"/><stop offset="1" stop-color="#fbe896"/></linearGradient><linearGradient id="linear-gradient-6" x1="32.89" y1="8.97" x2="35.93" y2="8.97" gradientUnits="userSpaceOnUse"><stop offset="0" stop-color="#fbe896"/><stop offset="1" stop-color="#f6ca66"/></linearGradient></defs><g id="Layer_2" data-name="Layer 2"><g id="Layer_1-2" data-name="Layer 1"><path class="cls-1" d="M35.89,10.7a6.43,6.43,0,0,0-2.55-7.49S28.41,4.86,29,9.91c0,0-1.45-.66-2.05-3.64-.19-.17-.36.06-.38.14s-.06.44-.13.65a4.5,4.5,0,0,0-.24.89,4.49,4.49,0,0,0-.07,1.1,4.36,4.36,0,0,0,.26,1.23,4.41,4.41,0,0,0,.73,1.26,6.12,6.12,0,0,0,1.36,1.23,10.94,10.94,0,0,0,2.15,1.11c.22.09.46.16.69.25a1.22,1.22,0,0,0,.42.09,3.12,3.12,0,0,0,.44-.09.73.73,0,0,1,.45.12,1.73,1.73,0,0,0,.55.15h-.08a2.46,2.46,0,0,0,.6,0c.2,0,.39-.06.59-.1s.57-.11.86-.18.8-.18,1.2-.28h.06s2.75-1.27,3.56-3.07l.62-1c.14-.16.16-.31-.25-.23A34.38,34.38,0,0,0,35.89,10.7Z"/><path class="cls-2" d="M34.51,5l.91,6.45S37.26,7.43,34.51,5Z"/><path class="cls-3" d="M26.27,8.6s.07,3.9,5.05,5.25l.6,0-.45-2.07a19.06,19.06,0,0,1-3.66-1.9,2,2,0,0,1-.53-1.72,3.19,3.19,0,0,0,.29,2.08C28.13,11.29,26.21,9.37,26.27,8.6Z"/><path class="cls-2" d="M33.32,3.49S25.06,7,31.84,13.73l.94-6.54Z"/><path class="cls-4" d="M38.15,12.09c-.24.08-.49.08-.72.16h-.14a5.07,5.07,0,0,1-1.25.35l-.28.05a.49.49,0,0,1-.31.07,3.58,3.58,0,0,1-2.17,0l-.14-.08-.73,1.4.56.13A6.2,6.2,0,0,0,38.3,12Z"/><path class="cls-5" d="M36.41,11.63c-.16.06-.32.06-.48.11h-.09A3.1,3.1,0,0,1,35,12l-.18,0a.32.32,0,0,1-.21,0,2.22,2.22,0,0,1-1.44,0l-.09-.06-.49,1,.37.09a4.1,4.1,0,0,0,3.55-1.54Z"/><path class="cls-6" d="M35.88,10.36a6.41,6.41,0,0,1-1,2.31,3.74,3.74,0,0,1-2.15,1.49c-1.32.23-1,0-1,0s-1.08-.22-2-2.2l0,0a11,11,0,0,1-.68-2,2.81,2.81,0,0,1,2.36-2.71,1.74,1.74,0,0,1,.36.19.94.94,0,0,1,.49,1.15l.56.11.25-.53-.18-.6a4.61,4.61,0,0,1,.76,0h0a2.26,2.26,0,0,1,2.18,1.46A3.35,3.35,0,0,1,35.88,10.36Z"/><path class="cls-7" d="M33.07,8.19s2.06,3,2,3.39a5.83,5.83,0,0,0-2.17-2.85Z"/><path class="cls-8" d="M32.2,8.52s-2.77,1.38-2.13,4c0,0-1.1-1.82,2.36-3.9Z"/><path class="cls-6" d="M35,12.53a2.52,2.52,0,0,1-1.18,1.21,2.74,2.74,0,0,1-2,.42c-1.21-.6-1.76-1.25-1.9-1.89-.42-1.9,2.71-3.7,2.71-3.7C35.11,10,35.43,11.5,35,12.53Z"/><path class="cls-9" d="M35,12.48a2.5,2.5,0,0,1-1.14,1.23,2.74,2.74,0,0,1-2,.42c-1.21-.6-1.76-1.25-1.9-1.89a2.37,2.37,0,0,1,0-.4S31.47,15.29,35,12.48Z"/><path class="cls-10" d="M29.75,12l0,0a11,11,0,0,1-.68-2,2.81,2.81,0,0,1,2.36-2.71,1.74,1.74,0,0,1,.36.19A3.13,3.13,0,0,0,29.75,12Z"/><path class="cls-11" d="M35.88,10.36c-.19-1.37-3-2.77-3-2.77.27,0,.53,0,.76,0h0a2.26,2.26,0,0,1,2.18,1.46A3.35,3.35,0,0,1,35.88,10.36Z"/><ellipse class="cls-12" cx="31.41" cy="8.31" rx="0.47" ry="0.21" transform="translate(3.33 24.64) rotate(-45)"/><ellipse class="cls-12" cx="34.04" cy="12.53" rx="0.52" ry="0.37" transform="translate(1.11 27.74) rotate(-45)"/><ellipse class="cls-12" cx="35.14" cy="8.52" rx="0.22" ry="0.37" transform="translate(2.08 23.16) rotate(-37.51)"/><text class="cls-13" transform="translate(0 14.69) scale(1.22 1)"><tspan xml:space="preserve">Smak    Jit</tspan></text></g></g></svg>