<svg xmlns="http://www.w3.org/2000/svg" viewBox="0 0 32 43.7"><defs><style>.cls-1{fill:#fff;}</style></defs><g id="Layer_2" data-name="Layer 2"><g id="Layer_1-2" data-name="Layer 1"><g id="Layer_2-2" data-name="Layer 2"><g id="Layer_1-2-2" data-name="Layer 1-2"><path d="M9.35,23.58c0-.14,0-.27,0-.41,0-4.87,0-9.74,0-14.61a6.07,6.07,0,0,1,.22-1.9A3.33,3.33,0,0,1,14.2,4.71l.46.2c0-.5,0-.93,0-1.37A3.55,3.55,0,0,1,18.82.06,3.36,3.36,0,0,1,21.3,2.24a2.64,2.64,0,0,0,.29-.15A3.28,3.28,0,0,1,26.7,4.28a17.58,17.58,0,0,1,.16,2.52c0,.17,0,.34,0,.56a2.63,2.63,0,0,0,.32-.13,3.11,3.11,0,0,1,4.4,1.7A9.47,9.47,0,0,1,32,12.31q0,8-.08,16A22.76,22.76,0,0,1,31.54,34a12.16,12.16,0,0,1-9.48,9.28A15.06,15.06,0,0,1,11.89,42,17.5,17.5,0,0,1,1.63,28.79c-.55-2.85-.88-5.73-1.31-8.6C.23,19.62.15,19,0,18.46a1.31,1.31,0,0,1,.35-1.18,3.35,3.35,0,0,1,5.36.22,13.07,13.07,0,0,1,1,1.79c.67,1.3,1.33,2.62,2,3.94A.53.53,0,0,0,9.35,23.58Zm21-2.52h0V10.86a8.72,8.72,0,0,0,0-.89,1.7,1.7,0,0,0-1.24-1.49,1.63,1.63,0,0,0-1.8.69,2.89,2.89,0,0,0-.38,1.32c0,2.21,0,4.42,0,6.64a.74.74,0,0,1-.76.84.72.72,0,0,1-.78-.77c0-1.12-.08-2.25-.08-3.38,0-2.42.08-4.85.07-7.28a9.22,9.22,0,0,0-.26-2.28A1.65,1.65,0,0,0,23.13,3.1a1.8,1.8,0,0,0-1.56,1.77l-.06,11.91c0,.25,0,.51,0,.77a.7.7,0,0,1-.73.68.73.73,0,0,1-.8-.67,3.62,3.62,0,0,1,0-.47c0-2.82,0-5.65,0-8.48,0-1.34.05-2.68,0-4a7.7,7.7,0,0,0-.2-1.8,1.63,1.63,0,0,0-1.67-1.23,1.88,1.88,0,0,0-1.76,1.22,4.33,4.33,0,0,0-.15,1.13V16.71a3.65,3.65,0,0,1,0,.47.78.78,0,0,1-1.53,0,3.77,3.77,0,0,1,0-.47q0-4.46,0-8.91A1.77,1.77,0,0,0,12.88,6a1.79,1.79,0,0,0-2,1.69c0,.77-.06,1.54-.06,2.31,0,4.61.05,9.22.05,13.84a1,1,0,0,0,.46,1,10.85,10.85,0,0,1,4.15,7.37.82.82,0,0,1-.74.94c-.44.06-.64-.15-.79-.69a22.94,22.94,0,0,0-.84-2.86A7.24,7.24,0,0,0,8.58,25.1a2.08,2.08,0,0,1-1.31-1.18c-.86-1.73-1.72-3.47-2.64-5.19a1.65,1.65,0,0,0-2.79-.55.55.55,0,0,0-.19.45c.43,2.95.86,5.9,1.33,8.85A16.59,16.59,0,0,0,18,42.1,10.93,10.93,0,0,0,30.3,31.43C30.43,28,30.33,24.52,30.33,21.06Z"/><path class="cls-1" d="M30.33,21.06c0,3.46.11,6.91,0,10.37A10.92,10.92,0,0,1,18.06,42.09,16.61,16.61,0,0,1,3,27.47c-.47-2.94-.89-5.89-1.32-8.85a.55.55,0,0,1,.18-.45,1.66,1.66,0,0,1,2.8.56c.91,1.71,1.77,3.45,2.63,5.19A2.13,2.13,0,0,0,8.58,25.1a7.25,7.25,0,0,1,4.58,4.43A23.13,23.13,0,0,1,14,32.4c.14.53.35.75.79.68a.82.82,0,0,0,.73-.93,10.83,10.83,0,0,0-4.15-7.38,1,1,0,0,1-.46-.95c0-4.61,0-9.22,0-13.83,0-.77,0-1.55.06-2.32A1.79,1.79,0,0,1,12.88,6a1.77,1.77,0,0,1,1.77,1.83c0,3,0,5.94,0,8.91a2.43,2.43,0,0,0,0,.47.77.77,0,0,0,1.52,0,3.77,3.77,0,0,0,0-.47V3.9a3.94,3.94,0,0,1,.14-1.13,1.87,1.87,0,0,1,1.75-1.22,1.63,1.63,0,0,1,1.67,1.23,6.72,6.72,0,0,1,.2,1.8c0,1.34,0,2.68,0,4,0,2.83,0,5.65,0,8.48,0,.16,0,.32,0,.47a.74.74,0,0,0,.8.67.7.7,0,0,0,.74-.68c0-.26,0-.52,0-.77l.06-11.91A1.8,1.8,0,0,1,23.12,3.1a1.65,1.65,0,0,1,1.94,1.16,9.23,9.23,0,0,1,.27,2.28c0,2.43-.06,4.85-.07,7.28,0,1.13,0,2.26.07,3.38a.74.74,0,0,0,.79.77.75.75,0,0,0,.76-.84c0-2.22,0-4.43,0-6.64a2.66,2.66,0,0,1,.38-1.32,1.62,1.62,0,0,1,1.8-.69A1.69,1.69,0,0,1,30.31,10a6.77,6.77,0,0,1,0,.9V21.06Zm-10.17,0c-.37-.35-.76-.77-1.21-1.12a3.29,3.29,0,0,0-5.32,2,5.66,5.66,0,0,0,.54,3.38,10.45,10.45,0,0,0,5.56,5.07,1.5,1.5,0,0,0,1.06-.07,11,11,0,0,0,3.36-2.19A7.53,7.53,0,0,0,26.8,22.9a3.2,3.2,0,0,0-1.45-3.06,3.29,3.29,0,0,0-3.54,0A15.22,15.22,0,0,0,20.16,21.08Z"/><path d="M20.16,21.08a15.22,15.22,0,0,1,1.65-1.28,3.31,3.31,0,0,1,3.54,0A3.21,3.21,0,0,1,26.8,22.9a7.49,7.49,0,0,1-2.65,5.29,11.12,11.12,0,0,1-3.35,2.2,1.5,1.5,0,0,1-1.06.06,10.43,10.43,0,0,1-5.57-5.07A5.62,5.62,0,0,1,13.63,22,3.29,3.29,0,0,1,19,20,16.24,16.24,0,0,1,20.16,21.08ZM15.11,23a6.52,6.52,0,0,0,.21,1A8.49,8.49,0,0,0,20,28.87a.53.53,0,0,0,.39,0A9.37,9.37,0,0,0,24.5,25.3a4.71,4.71,0,0,0,.75-2.68A1.66,1.66,0,0,0,23,21a2.84,2.84,0,0,0-1,.57,5.68,5.68,0,0,0-.78.91,1.21,1.21,0,0,1-2.14-.06,5.13,5.13,0,0,0-.74-.93A2,2,0,0,0,16.05,21c-.79.33-.92,1.05-.94,2Z"/><path class="cls-1" d="M15.11,23c0-1,.15-1.69.94-2a2,2,0,0,1,2.29.48,4.5,4.5,0,0,1,.75.93,1.22,1.22,0,0,0,2.14.06,4.82,4.82,0,0,1,.77-.91A2.81,2.81,0,0,1,23,21a1.66,1.66,0,0,1,2.27,1.64,4.71,4.71,0,0,1-.75,2.68,9.43,9.43,0,0,1-4.11,3.57.53.53,0,0,1-.39,0A8.51,8.51,0,0,1,15.32,24,6.52,6.52,0,0,1,15.11,23Z"/></g></g></g></g></svg>