<svg xmlns="http://www.w3.org/2000/svg" viewBox="0 0 100.26 100.03"><defs><style>.cls-1{fill:#fff;}</style></defs><g id="Layer_2" data-name="Layer 2"><g id="Layer_1-2" data-name="Layer 1"><path d="M100.24,59.46c0-13.82,0-27.65,0-41.47,0-4.57-1.8-8-6.42-8.76-3.17-.54-6.51-.1-10.08-.1-.09,5.52.59,11.6-6.43,12-8.19.43-6.78-6.84-7.76-11.67h-39c-.9,9.12-2.39,11.89-6.75,11.79-7.93-.18-6.74-6.68-7.45-11.92C14.68,9.17,13.23,9,11.78,9,2.25,8.88,0,11.13,0,20.65Q0,55.37,0,90.1C0,97.2,2.64,100,9.5,100q40.71.06,81.44,0c6.4,0,9.2-2.73,9.26-9C100.3,80.45,100.24,70,100.24,59.46ZM87.85,93.61q-37.72-.09-75.43,0c-3.13,0-5.82-.63-5.83-4.49,0-19.29,0-38.59,0-58.24H93.83V59.69c0,9.32-.09,18.65,0,28C93.93,92,92,93.62,87.85,93.61Z"/><path d="M80.25,8.62c0,2,.44,4.13-.15,5.92-.45,1.37-2.21,2.31-3.39,3.44-1.15-1.2-3.1-2.28-3.29-3.62A36.24,36.24,0,0,1,73.4,4c.22-1.45,2.29-2.63,3.52-3.93C78,1.4,79.51,2.63,80.18,4.19c.54,1.27.11,2.94.11,4.43Z"/><path d="M26.94,9.07c0,1.82.45,3.81-.14,5.42-.51,1.4-2.21,2.36-3.39,3.51-1.14-1.2-3.08-2.28-3.26-3.62a37,37,0,0,1,0-10.4c.22-1.46,2.24-2.66,3.44-4,1.14,1.36,2.7,2.57,3.32,4.14S27,7.41,27,9.07Z"/><path class="cls-1" d="M93.83,59.69V30.85H6.58c0,19.65,0,38.95,0,58.24,0,3.86,2.7,4.49,5.83,4.49q37.71,0,75.43,0c4.18,0,6.08-1.65,6-6C93.74,78.34,93.83,69,93.83,59.69ZM67.68,40.43h16V56.69h-16ZM32.79,83.5H16.54V67.35H32.79Zm25.4.13h-16V67.39h16Zm.07-26.94H42V40.49H58.26ZM83.74,83.85c-4.82,0-9.42.12-14-.11a3.4,3.4,0,0,1-2.37-2.32c-.23-4.59-.11-9.21-.11-14.13H83.74Z"/><path d="M32.79,67.35V83.49H16.54V67.35Z"/><path d="M67.69,40.43h16V56.69h-16Z"/><path d="M83.74,67.29V83.85c-4.82,0-9.42.12-14-.11a3.43,3.43,0,0,1-2.37-2.32c-.23-4.59-.11-9.21-.11-14.13Z"/><path d="M42,56.69V40.49H58.26v16.2Z"/><path d="M58.19,83.63h-16V67.39h16Z"/></g></g></svg>