<svg xmlns="http://www.w3.org/2000/svg" xmlns:xlink="http://www.w3.org/1999/xlink" viewBox="0 0 14.66 11.33"><defs><style>.cls-1{fill:#f9e692;stroke-width:0.1px;}.cls-1,.cls-6{stroke:#a97c50;stroke-miterlimit:10;}.cls-2{fill:#f6d169;}.cls-3{fill:url(#linear-gradient);}.cls-4{fill:url(#linear-gradient-2);}.cls-5{fill:url(#linear-gradient-3);}.cls-6{fill:#fbe896;stroke-width:0.05px;}.cls-7{fill:#bd662a;}.cls-8{fill:#b85e28;}.cls-9{opacity:0.5;fill:url(#linear-gradient-4);}.cls-10{opacity:0.65;fill:url(#linear-gradient-5);}.cls-11{opacity:0.67;fill:url(#linear-gradient-6);}.cls-12{fill:#fff;}</style><linearGradient id="linear-gradient" x1="0.18" y1="7.88" x2="5.83" y2="7.88" gradientUnits="userSpaceOnUse"><stop offset="0" stop-color="#fbe896"/><stop offset="0.04" stop-color="#fae48f"/><stop offset="0.15" stop-color="#f8dc7e"/><stop offset="0.29" stop-color="#f7d672"/><stop offset="0.49" stop-color="#f6d26b"/><stop offset="1" stop-color="#f6d169"/></linearGradient><linearGradient id="linear-gradient-2" x1="6.33" y1="9.97" x2="12.21" y2="9.97" gradientUnits="userSpaceOnUse"><stop offset="0.45" stop-color="#f6d169"/><stop offset="1" stop-color="#fbe896"/></linearGradient><linearGradient id="linear-gradient-3" x1="9.52" y1="9.2" x2="10.4" y2="9.2" gradientUnits="userSpaceOnUse"><stop offset="0" stop-color="#f6d169"/><stop offset="1" stop-color="#fbe896"/></linearGradient><linearGradient id="linear-gradient-4" x1="6.33" y1="11.03" x2="6.33" y2="8.69" gradientUnits="userSpaceOnUse"><stop offset="0" stop-color="#b6974c"/><stop offset="0.11" stop-color="#c4a75b"/><stop offset="0.33" stop-color="#dcc475"/><stop offset="0.56" stop-color="#edd887"/><stop offset="0.78" stop-color="#f8e492"/><stop offset="1" stop-color="#fbe896"/></linearGradient><linearGradient id="linear-gradient-5" x1="2.97" y1="6.46" x2="5.69" y2="6.46" gradientUnits="userSpaceOnUse"><stop offset="0" stop-color="#b6974c"/><stop offset="0.02" stop-color="#ba9c51"/><stop offset="0.17" stop-color="#d2b86a"/><stop offset="0.33" stop-color="#e4cd7d"/><stop offset="0.5" stop-color="#f1dc8b"/><stop offset="0.7" stop-color="#f9e593"/><stop offset="1" stop-color="#fbe896"/></linearGradient><linearGradient id="linear-gradient-6" x1="6.81" y1="5.81" x2="9.85" y2="5.81" gradientUnits="userSpaceOnUse"><stop offset="0" stop-color="#fbe896"/><stop offset="1" stop-color="#f6ca66"/></linearGradient></defs><g id="Layer_2" data-name="Layer 2"><g id="Layer_1-2" data-name="Layer 1"><path class="cls-1" d="M9.8,7.55A6.44,6.44,0,0,0,7.26.06S2.32,1.71,2.92,6.75c0,0-1.45-.66-2-3.63-.18-.18-.35.06-.37.13S.43,3.7.36,3.9a6.88,6.88,0,0,0-.24.89,5.11,5.11,0,0,0-.06,1.1A4.27,4.27,0,0,0,.31,7.12a4.5,4.5,0,0,0,.74,1.27A6.14,6.14,0,0,0,2.41,9.62a10.55,10.55,0,0,0,2.14,1.1c.23.09.47.16.69.26a1.27,1.27,0,0,0,.43.09,3.13,3.13,0,0,0,.44-.1.86.86,0,0,1,.44.12,2.29,2.29,0,0,0,.55.16l-.07,0a2,2,0,0,0,.6,0c.19,0,.39-.07.58-.1L9.08,11l1.2-.28h.05s2.76-1.28,3.57-3.08l.62-1c.14-.17.15-.31-.25-.23A33.18,33.18,0,0,0,9.8,7.55Z"/><path class="cls-2" d="M8.43,1.8l.91,6.46S11.18,4.28,8.43,1.8Z"/><path class="cls-3" d="M.19,5.45s.06,3.89,5.05,5.24l.59,0L5.39,8.65S2.22,7.35,1.73,6.76A2,2,0,0,1,1.19,5a3.19,3.19,0,0,0,.3,2.09C2.05,8.13.13,6.21.19,5.45Z"/><path class="cls-2" d="M7.24.34S-1,3.88,5.76,10.58L6.7,4Z"/><path class="cls-4" d="M12.06,8.94c-.23.07-.48.08-.71.15a.23.23,0,0,1-.14,0A4.77,4.77,0,0,1,10,9.45l-.28.06a.5.5,0,0,1-.31.06,3.43,3.43,0,0,1-2.17,0l-.14-.08L6.33,11l.56.13a6.22,6.22,0,0,0,5.32-2.22A.53.53,0,0,1,12.06,8.94Z"/><path class="cls-5" d="M10.32,8.48c-.15,0-.32,0-.47.11H9.76a3.23,3.23,0,0,1-.84.25l-.19,0a.29.29,0,0,1-.2.05A2.29,2.29,0,0,1,7.09,9L7,8.9l-.48,1,.37.09a4,4,0,0,0,3.54-1.55Z"/><path class="cls-6" d="M9.8,7.2a6.41,6.41,0,0,1-1,2.31A3.74,3.74,0,0,1,6.67,11c-1.32.23-1,0-1,0s-1.08-.22-2-2.2l0,0a11,11,0,0,1-.68-2A2.81,2.81,0,0,1,5.33,4.11a1.74,1.74,0,0,1,.36.19.94.94,0,0,1,.49,1.15l.56.11L7,5l-.18-.6a4.61,4.61,0,0,1,.76,0s0,0,0,0A2.26,2.26,0,0,1,9.78,5.9,3.35,3.35,0,0,1,9.8,7.2Z"/><path class="cls-7" d="M7,5S9.05,8,8.93,8.42A5.76,5.76,0,0,0,6.76,5.57Z"/><path class="cls-8" d="M6.11,5.37S3.35,6.75,4,9.41c0,0-1.1-1.82,2.36-3.9Z"/><path class="cls-6" d="M8.88,9.37A2.52,2.52,0,0,1,7.7,10.58a2.74,2.74,0,0,1-2,.42c-1.21-.6-1.76-1.25-1.9-1.89-.42-1.9,2.71-3.7,2.71-3.7C9,6.88,9.35,8.34,8.88,9.37Z"/><path class="cls-9" d="M8.87,9.33a2.5,2.5,0,0,1-1.14,1.23,2.74,2.74,0,0,1-2,.42C4.5,10.38,4,9.73,3.81,9.09a2.37,2.37,0,0,1,0-.4S5.39,12.14,8.87,9.33Z"/><path class="cls-10" d="M3.67,8.8l0,0a11,11,0,0,1-.68-2A2.81,2.81,0,0,1,5.33,4.11a1.74,1.74,0,0,1,.36.19A3.13,3.13,0,0,0,3.67,8.8Z"/><path class="cls-11" d="M9.8,7.2c-.19-1.37-3-2.77-3-2.77.27,0,.53,0,.76,0,0,0,0,0,0,0A2.26,2.26,0,0,1,9.78,5.9,3.35,3.35,0,0,1,9.8,7.2Z"/><ellipse class="cls-12" cx="5.32" cy="5.15" rx="0.47" ry="0.21" transform="translate(-2.08 5.27) rotate(-45)"/><ellipse class="cls-12" cx="7.96" cy="9.38" rx="0.52" ry="0.37" transform="translate(-4.3 8.37) rotate(-45)"/><ellipse class="cls-12" cx="9.06" cy="5.37" rx="0.22" ry="0.37" transform="translate(-1.4 6.63) rotate(-37.51)"/></g></g></svg>