<svg xmlns="http://www.w3.org/2000/svg" viewBox="0 0 219.08 315.86"><defs><style>.cls-1{fill:red;}.cls-2{fill:#fff;}</style></defs><g id="Layer_2" data-name="Layer 2"><g id="Layer_1-2" data-name="Layer 1"><path class="cls-1" d="M218.17,95.1c-4.74-32.38-20.59-58-47.52-76.39C147.29,2.8,121.19-2.8,93.16,1.28A105.76,105.76,0,0,0,47.22,19.55c-20,14-34.06,32.59-41.67,55.79C-.39,93.42-2.12,111.83,3.1,130.51c5,17.88,12.32,34.83,20.73,51.3C48,229,77.17,273.07,108.35,315.86h2.47c.78-1.06,1.57-2.11,2.34-3.18A1117.34,1117.34,0,0,0,178,213.76c14.11-24.48,27.21-49.46,36-76.46C218.57,123.49,220.29,109.53,218.17,95.1ZM109.63,148.78a39.24,39.24,0,1,1,39.23-39.26A39.33,39.33,0,0,1,109.63,148.78Z"/><path class="cls-2" d="M109.64,148.78a39.24,39.24,0,1,1,39.22-39.26A39.32,39.32,0,0,1,109.64,148.78Z"/></g></g></svg>